<?xml version="1.0" encoding="UTF-8"?>
<svg id="Art" xmlns="http://www.w3.org/2000/svg" width="170.226977" height="130" xmlns:i="http://ns.adobe.com/AdobeIllustrator/10.0/" version="1.1" viewBox="0 0 170.226977 130">
  <!-- Generator: Adobe Illustrator 29.5.1, SVG Export Plug-In . SVG Version: 2.1.0 Build 141)  -->
  <defs>
    <style>
      .st0 {
        fill: #fff;
      }
    </style>
  </defs>
  <g id="Logo">
    <path id="Symbol" class="st0" d="M44.2631934,65.0000216c0-22.5249513,18.3253271-40.8502416,40.8502784-40.8502416,22.5249513,0,40.8503407,18.3252904,40.8503407,40.8502416,0,22.5249513-18.3253894,40.8502784-40.8503407,40.8502784-22.5249513,0-40.8502784-18.3253271-40.8502784-40.8502784ZM59.0175912,65.0000216c0,14.3893802,11.7065004,26.0958805,26.0958805,26.0958805,14.3893802,0,26.0958805-11.7065004,26.0958805-26.0958805s-11.7065004-26.0958805-26.0958805-26.0958805-26.0958805,11.7065004-26.0958805,26.0958805ZM33.744081,86.2779392l-13.6305577,5.6459766c7.1413783,17.1769323,20.8991518,30.9347059,38.0761142,38.0760842l5.6459466-13.6305877c-13.5749045-5.6438153-24.4476878-16.5165686-30.0915031-30.0914731ZM20.1135234,38.0761273l13.6305577,5.6459766c5.6438153-13.5749345,16.5166136-24.4476878,30.0915481-30.0915031L58.1896375,0c-17.1769623,7.1413783-30.9347359,20.899195-38.0761142,38.0761273ZM106.3913895,116.3694123l5.6459766,13.6305277c17.1769023-7.1413783,30.9347059-20.8991218,38.0760842-38.0760541l-13.6305877-5.6459037c-5.6438153,13.5749045-16.5165686,24.4475848-30.0914731,30.0914301ZM136.4828625,43.7221339l13.6305877-5.6459766C142.9720719,20.899225,129.2142684,7.1414781,112.0373661.0000998l-5.6460152,13.6305311c13.5749045,5.6438153,24.4476963,16.5165986,30.0915116,30.0915031ZM0,65.0000216c0,11.5311358,2.3095171,22.5317053,6.4829357,32.5698409l13.6305877-5.6459466c-3.4499572-8.298028-5.3591256-17.3916804-5.3591256-26.9238943s1.9091684-18.6258663,5.3591256-26.9238943l-13.6305877-5.6459466C2.3095171,42.4683163,0,53.4688857,0,65.0000216ZM150.1134502,91.9239515l13.6305577,5.645911c4.1734185-10.0381356,6.4829691-21.0387351,6.4829691-32.5698409,0-11.5311058-2.3095506-22.5317053-6.4829691-32.5698409l-13.6305577,5.645911c3.4499572,8.298028,5.3590955,17.391716,5.3590955,26.9239299,0,9.5322139-1.9141384,18.6259019-5.3590955,26.9239299Z"/>
  </g>
  <metadata>
    <i:aipgfRef id="adobe_illustrator_pgf"/>
    <i:aipgf id="adobe_illustrator_pgf" i:pgfEncoding="zstd/base64" i:pgfVersion="24">
<![CDATA[
KLUv/QBY/PIAyt/4KD1ASRo3wzAMwwBhVRRFDX/6P55Wdkjkb8ziR8wuZpqnWdT4MX6METNENbLV
rPonu2K0sv+HAZ+qWTpu2a8GgAJ/AoECFGLRNZKp1d7D9i83c4VbMp48pvAqXSRcQbmVo9nBE67Y
... (truncated for brevity) ...
]]>
    </i:aipgf>
  </metadata>
</svg>

