<?xml version="1.0" encoding="UTF-8"?>
<svg id="Art" xmlns="http://www.w3.org/2000/svg" width="576.0000168" height="130.3327975" xmlns:i="http://ns.adobe.com/AdobeIllustrator/10.0/" version="1.1" viewBox="0 0 576.0000168 130.3327975">
  <!-- Generator: Adobe Illustrator 29.5.1, SVG Export Plug-In . SVG Version: 2.1.0 Build 141)  -->
  <defs>
    <style>
      .st0 {
        fill: #fff;
      }
    </style>
  </defs>
  <g id="Logo">
    <path id="Wordmark" class="st0" d="M336.6196983,46.0285102h14.3139511v58.6733112h-14.3139511v-9.9034411c-5.2143134,7.2933846-12.9843515,11.3234509-20.5117286,11.3234509-16.281734,0-28.5473204-13.2438005-28.5473204-30.7566655,0-19.0046049,13.7807682-30.7566655,28.5473204-30.7566655,9.3977903,0,16.1219745,4.6993835,20.5117286,11.3234509v-9.9034411ZM336.7687747,75.36541c0-10.1464074-7.5497202-17.7176771-17.652418-17.7176771-10.5681798,0-17.7813489,7.9324837-17.7813489,17.7176771,0,9.7091901,7.0817964,17.7176771,17.7813489,17.7176771,9.8202953,0,17.652418-7.3596204,17.652418-17.7176771ZM399.3848552,44.6085004c-10.4261238,0-17.563656,5.5768093-20.2751111,10.9124227l.0000382-9.4924129h-14.3139465l-.0000427,58.6733112h14.3139511v-31.8688163c0-8.9297444,5.6381614-17.7356248,14.2643811-17.7356248,8.4354484,0,12.7778302,5.7097083,12.7778302,15.3339822v34.2704589h14.3140121v-36.8464512c0-16.1056139-9.1202715-23.2468699-21.0811122-23.2468699ZM446.9268299,32.285591h-14.3139428l.0000528,55.430993c0,13.6395059,6.7323644,16.9852374,17.1647761,16.9852374h12.9980871v-12.7438881h-15.8489768l.0000037-33.185596h15.8489731v-12.7438271h-15.8489731v-13.7429192ZM574.56493,44.6097559c-11.2227718,0-16.2940467,6.0178046-18.6631486,12.4195321v-11.0007448h-14.3139346v58.6732436h14.3138735v-31.3946295c0-8.5620496,5.3421393-14.7140349,15.0133471-14.7140349h5.0849493v-13.9833665h-1.4350868ZM531.925968,75.3651659c0,17.9505096-13.9242893,30.756055-31.3158543,30.756055-18.1246151,0-31.3159764-13.6238779-31.3159764-30.756055,0-17.2791778,13.5186943-30.7561161,31.3159764-30.7561161,17.4324053,0,31.3158543,12.7813098,31.3158543,30.7561161ZM518.2188222,75.3775584c0-10.2125211-7.5312841-17.7300696-17.6087085-17.7300696-9.7011319,0-17.5226325,7.2055993-17.5226325,17.7300696,0,10.0944565,7.4044898,17.7052846,17.5226325,17.7052846,10.2274775,0,17.6087085-7.9269284,17.6087085-17.7052846ZM290.7343718,22.2066864l-27.5762101,82.4954298h-15.1975949l26.8002993-82.4954298h15.9735056ZM205.0748401,22.2066583l27.6881319,82.4954579h15.1975949l-26.802375-82.4954298-16.0833518-.0000281Z"/>
    <path id="Symbol" class="st0" d="M44.3765063,65.1664204c0-22.5826147,18.3722396-40.9548175,40.9548543-40.9548175,22.5826147,0,40.9549168,18.3722028,40.9549168,40.9548175,0,22.5826147-18.3723021,40.9548543-40.9549168,40.9548543-22.5826147,0-40.9548543-18.3722396-40.9548543-40.9548543ZM59.1686751,65.1664204c0,14.4262167,11.7364688,26.1626855,26.1626855,26.1626855,14.4262167,0,26.1626855-11.7364688,26.1626855-26.1626855s-11.7364688-26.1626855-26.1626855-26.1626855-26.1626855,11.7364688-26.1626855,26.1626855ZM33.8304652,86.4988091l-13.6654516,5.6604302c7.1596601,17.2209049,20.9526532,31.0138981,38.1735883,38.1735582l5.6604001-13.6654817c-13.609656-5.6582634-24.5102734-16.5588507-30.1685367-30.1685066ZM20.1650136,38.1736014l13.6654516,5.6604302c5.6582634-13.6096861,16.5588958-24.5102734,30.1685819-30.1685367L58.3386019,0c-17.220935,7.1596601-31.0139282,20.9526965-38.1735883,38.1736014ZM106.6637493,116.6673157l5.6604302,13.6654215c17.2208748-7.1596601,31.0138981-20.9526232,38.1735582-38.1735281l-13.6654817-5.6603571c-5.6582634,13.609656-16.5588507,24.5101701-30.1685066,30.1684636ZM136.832256,43.8340617l13.6654817-5.6604302C143.3380777,20.9527266,129.5450544,7.1597601,112.3241795.0001l-5.6604689,13.665425c13.609656,5.6582634,24.510282,16.5588808,30.1685453,30.1685367ZM0,65.1664204c0,11.5606553,2.3154294,22.589386,6.4995319,32.653219l13.6654817-5.6604001c-3.458789-8.3192708-5.3728448-17.4362027-5.3728448-26.9928189,0-9.5566162,1.9140558-18.6735482,5.3728448-26.9928189l-13.6654817-5.6604001C2.3154294,42.5770343,0,53.6057651,0,65.1664204ZM150.4977377,92.159275l13.6654516,5.6603644c4.1841024-10.063833,6.4995654-21.0925938,6.4995654-32.653219,0-11.5606252-2.315463-22.589386-6.4995654-32.653219l-13.6654516,5.6603644c3.458789,8.3192708,5.3728147,17.4362385,5.3728147,26.9928546,0,9.5566162-1.9140257,18.6735839-5.3728147,26.9928546Z"/>
  </g>
  <metadata>
    <i:aipgfRef id="adobe_illustrator_pgf"/>
    <i:aipgf id="adobe_illustrator_pgf" i:pgfEncoding="zstd/base64" i:pgfVersion="24">
<![CDATA[
KLUv/QBYbPMAquFIKT1ASRo3wzAMwwBhVRRFDX/6Rzyt7JDI35jFj5hdzDRPs6jxY/wYI2aIamSr
WfVPdsVoZf+/AZ+qWTpu2a8GhAKFAoUCN3OFXzKmPKbwKmUkXFG5laO5wROu2Nw/MFnw7h/UjDf3
DokGUy7E+3BecGvls5FtUmgqt+5bc+Rihc379ksq2OIccZxG7/uXC766mzlOI0lgQJhwbfL+3tRq
EorTjJFESQpKKkY4MSaXUlfzgk2CpoXLaDpurdS88BUacea+z+WPOITRcQUjuORxep4ppQii4hMZ
0QHA7/2WRiC+OmzRhPjqMLvfuptB/KY3/7bVJsVpRo/mlC5JGX1CKF2alOSSjCSHDsVogs8zPdJ8
4GREn5BPc8qFO7464Ib73sIGI6RyGsgh6diVDbNR6rbv74uv7dbKW5sUdf4MRbh8CtP+LNbPsL+S
... (truncated for brevity) ...
]]>
    </i:aipgf>
  </metadata>
</svg>

